HIERARCHY
ROOT reference
{
  OFFSET 0 0 0
  CHANNELS 6 Xposition Yposition Zposition Zrotation Xrotation Yrotation
  JOINT Hips
  {
    OFFSET 340.57 87.5694 214.797
    CHANNELS 3 Zrotation Xrotation Yrotation
    JOINT RightUpLeg
    {
      OFFSET -9.35418 -1.55218 -0.019184
      CHANNELS 3 Zrotation Xrotation Yrotation
      JOINT RightLeg
      {
        OFFSET -0.0482219 -41.8948 0.0725956
        CHANNELS 3 Zrotation Xrotation Yrotation
        JOINT RightFoot
        {
          OFFSET -1.00159 -42.3965 -1.97064
          CHANNELS 3 Zrotation Xrotation Yrotation
          End Site
          {
            OFFSET 0 -7.69 17.5
          }
        }
      }
    }
    JOINT LeftUpLeg
    {
      OFFSET 9.33628 -1.64535 -0.0795185
      CHANNELS 3 Zrotation Xrotation Yrotation
      JOINT LeftLeg
      {
        OFFSET 0.124871 -41.8725 -0.08325
        CHANNELS 3 Zrotation Xrotation Yrotation
        JOINT LeftFoot
        {
          OFFSET 0.728222 -40.8097 2.1196
          CHANNELS 3 Zrotation Xrotation Yrotation
          End Site
          {
            OFFSET 0 -7.69 17.5
          }
        }
      }
    }
    JOINT Spine
    {
      OFFSET -0.0135102 14.2943 0.0647361
      CHANNELS 3 Zrotation Xrotation Yrotation
      JOINT Spine1
      {
        OFFSET 0.0181502 9.72385 0.0148045
        CHANNELS 3 Zrotation Xrotation Yrotation
        JOINT Spine2
        {
          OFFSET 0.0557859 10.1166 -0.00979693
          CHANNELS 3 Zrotation Xrotation Yrotation
          JOINT Spine3
          {
            OFFSET 0.0359868 9.71757 0.00306838
            CHANNELS 3 Zrotation Xrotation Yrotation
            JOINT Neck
            {
              OFFSET 0.139197 10.3803 0.0501204
              CHANNELS 3 Zrotation Xrotation Yrotation
              JOINT Head
              {
                OFFSET 0.148012 9.47645 -0.000545472
                CHANNELS 3 Zrotation Xrotation Yrotation
                End Site
                {
                  OFFSET 0 15.95 0
                }
              }
            }
            JOINT RightShoulder
            {
              OFFSET -3.16276 6.92807 0.0312834
              CHANNELS 3 Zrotation Xrotation Yrotation
              JOINT RightArm
              {
                OFFSET -12.7681 0.0492996 0.0890957
                CHANNELS 3 Zrotation Xrotation Yrotation
                JOINT RightForeArm
                {
                  OFFSET -26.4761 -0.090776 0.147076
                  CHANNELS 3 Zrotation Xrotation Yrotation
                  JOINT RightHand
                  {
                    OFFSET -25.9655 0.0607057 -0.248467
                    CHANNELS 3 Zrotation Xrotation Yrotation
                    JOINT RightHandThumb1
                    {
                      OFFSET -2.48905 0.190105 3.12053
                      CHANNELS 3 Zrotation Xrotation Yrotation
                      JOINT RightHandThumb2
                      {
                        OFFSET -3.68274 0 0
                        CHANNELS 3 Zrotation Xrotation Yrotation
                        JOINT RightHandThumb3
                        {
                          OFFSET -2.55832 0 0
                          CHANNELS 3 Zrotation Xrotation Yrotation
                          End Site
                          {
                            OFFSET -2.194 0 0
                          }
                        }
                      }
                    }
                    JOINT RightInHandIndex
                    {
                      OFFSET -3.22368 0.508421 1.97842
                      CHANNELS 3 Zrotation Xrotation Yrotation
                      JOINT RightHandIndex1
                      {
                        OFFSET -5.21684 -0.091368 0.999158
                        CHANNELS 3 Zrotation Xrotation Yrotation
                        JOINT RightHandIndex2
                        {
                          OFFSET -3.61937 0 0
                          CHANNELS 3 Zrotation Xrotation Yrotation
                          JOINT RightHandIndex3
                          {
                            OFFSET -2.0521 0 0
                            CHANNELS 3 Zrotation Xrotation Yrotation
                            End Site
                            {
                              OFFSET -1.805 0 0
                            }
                          }
                        }
                      }
                    }
                    JOINT RightInHandMiddle
                    {
                      OFFSET -3.38211 0.517263 0.756737
                      CHANNELS 3 Zrotation Xrotation Yrotation
                      JOINT RightHandMiddle1
                      {
                        OFFSET -5.17411 -0.084 0.313895
                        CHANNELS 3 Zrotation Xrotation Yrotation
                        JOINT RightHandMiddle2
                        {
                          OFFSET -3.94947 0 0
                          CHANNELS 3 Zrotation Xrotation Yrotation
                          JOINT RightHandMiddle3
                          {
                            OFFSET -2.47579 0 0
                            CHANNELS 3 Zrotation Xrotation Yrotation
                            End Site
                            {
                              OFFSET -1.975 0 0
                            }
                          }
                        }
                      }
                    }
                    JOINT RightInHandRing
                    {
                      OFFSET -3.36516 0.537895 -0.128947
                      CHANNELS 3 Zrotation Xrotation Yrotation
                      JOINT RightHandRing1
                      {
                        OFFSET -4.63474 -0.022105 -0.478947
                        CHANNELS 3 Zrotation Xrotation Yrotation
                        JOINT RightHandRing2
                        {
                          OFFSET -3.44238 0 0
                          CHANNELS 3 Zrotation Xrotation Yrotation
                          JOINT RightHandRing3
                          {
                            OFFSET -2.3881 0 0
                            CHANNELS 3 Zrotation Xrotation Yrotation
                            End Site
                            {
                              OFFSET -1.857 0 0
                            }
                          }
                        }
                      }
                    }
                    JOINT RightInHandPinky
                    {
                      OFFSET -3.16105 0.469368 -1.20179
                      CHANNELS 3 Zrotation Xrotation Yrotation
                      JOINT RightHandPinky1
                      {
                        OFFSET -4.14105 -0.022105 -1.09053
                        CHANNELS 3 Zrotation Xrotation Yrotation
                        JOINT RightHandPinky2
                        {
                          OFFSET -2.75653 0 0
                          CHANNELS 3 Zrotation Xrotation Yrotation
                          JOINT RightHandPinky3
                          {
                            OFFSET -1.74189 0 0
                            CHANNELS 3 Zrotation Xrotation Yrotation
                            End Site
                            {
                              OFFSET -1.645 0 0
                            }
                          }
                        }
                      }
                    }
                  }
                }
              }
            }
            JOINT LeftShoulder
            {
              OFFSET 3.20588 6.97332 0.0254387
              CHANNELS 3 Zrotation Xrotation Yrotation
              JOINT LeftArm
              {
                OFFSET 12.8648 0.0341024 0.0247643
                CHANNELS 3 Zrotation Xrotation Yrotation
                JOINT LeftForeArm
                {
                  OFFSET 26.5059 -0.0470976 -0.0807017
                  CHANNELS 3 Zrotation Xrotation Yrotation
                  JOINT LeftHand
                  {
                    OFFSET 26.0013 -0.0100885 -0.0649647
                    CHANNELS 3 Zrotation Xrotation Yrotation
                    JOINT LeftHandThumb1
                    {
                      OFFSET 2.48905 0.190105 3.12053
                      CHANNELS 3 Zrotation Xrotation Yrotation
                      JOINT LeftHandThumb2
                      {
                        OFFSET 3.68274 0 0
                        CHANNELS 3 Zrotation Xrotation Yrotation
                        JOINT LeftHandThumb3
                        {
                          OFFSET 2.55832 0 0
                          CHANNELS 3 Zrotation Xrotation Yrotation
                          End Site
                          {
                            OFFSET 2.194 0 0
                          }
                        }
                      }
                    }
                    JOINT LeftInHandIndex
                    {
                      OFFSET 3.22368 0.508421 1.97842
                      CHANNELS 3 Zrotation Xrotation Yrotation
                      JOINT LeftHandIndex1
                      {
                        OFFSET 5.21684 -0.091368 0.999158
                        CHANNELS 3 Zrotation Xrotation Yrotation
                        JOINT LeftHandIndex2
                        {
                          OFFSET 3.61937 0 0
                          CHANNELS 3 Zrotation Xrotation Yrotation
                          JOINT LeftHandIndex3
                          {
                            OFFSET 2.0521 0 0
                            CHANNELS 3 Zrotation Xrotation Yrotation
                            End Site
                            {
                              OFFSET 1.805 0 0
                            }
                          }
                        }
                      }
                    }
                    JOINT LeftInHandMiddle
                    {
                      OFFSET 3.38211 0.517263 0.756737
                      CHANNELS 3 Zrotation Xrotation Yrotation
                      JOINT LeftHandMiddle1
                      {
                        OFFSET 5.17411 -0.084 0.313895
                        CHANNELS 3 Zrotation Xrotation Yrotation
                        JOINT LeftHandMiddle2
                        {
                          OFFSET 3.94947 0 0
                          CHANNELS 3 Zrotation Xrotation Yrotation
                          JOINT LeftHandMiddle3
                          {
                            OFFSET 2.47579 0 0
                            CHANNELS 3 Zrotation Xrotation Yrotation
                            End Site
                            {
                              OFFSET 1.975 0 0
                            }
                          }
                        }
                      }
                    }
                    JOINT LeftInHandRing
                    {
                      OFFSET 3.36516 0.537895 -0.128947
                      CHANNELS 3 Zrotation Xrotation Yrotation
                      JOINT LeftHandRing1
                      {
                        OFFSET 4.63474 -0.022105 -0.478947
                        CHANNELS 3 Zrotation Xrotation Yrotation
                        JOINT LeftHandRing2
                        {
                          OFFSET 3.44238 0 0
                          CHANNELS 3 Zrotation Xrotation Yrotation
                          JOINT LeftHandRing3
                          {
                            OFFSET 2.3881 0 0
                            CHANNELS 3 Zrotation Xrotation Yrotation
                            End Site
                            {
                              OFFSET 1.857 0 0
                            }
                          }
                        }
                      }
                    }
                    JOINT LeftInHandPinky
                    {
                      OFFSET 3.16105 0.469368 -1.20179
                      CHANNELS 3 Zrotation Xrotation Yrotation
                      JOINT LeftHandPinky1
                      {
                        OFFSET 4.14105 -0.022105 -1.09053
                        CHANNELS 3 Zrotation Xrotation Yrotation
                        JOINT LeftHandPinky2
                        {
                          OFFSET 2.75653 0 0
                          CHANNELS 3 Zrotation Xrotation Yrotation
                          JOINT LeftHandPinky3
                          {
                            OFFSET 1.74189 0 0
                            CHANNELS 3 Zrotation Xrotation Yrotation
                            End Site
                            {
                              OFFSET 1.645 0 0
                            }
                          }
                        }
                      }
                    }
                  }
                }
              }
            }
          }
        }
      }
    }
  }
}
MOTION
Frames: 2
Frame Time: 0.00833333
9.000000000000000000e+02 0.000000000000000000e+00 0.000000000000000000e+00 0.000000000000000000e+00 0.000000000000000000e+00 0.000000000000000000e+00 -2.737695238742943182e+00 5.385856849890076958e+00 2.685892829999001208e+01 -2.152504572856788911e+01 7.825418738987242939e+00 -1.645026049155873693e+01 2.208929797119388638e+00 -4.821180286196221410e+00 -5.073632112011165596e+00 -1.082024113327673565e+00 3.847217094462020093e+00 -1.485910872606713973e+01 -1.251331469644259364e+01 -1.184512947522157056e+01 -4.846579553779511329e+00 6.690697852686413150e+00 -1.911173416756560384e+00 -7.854668963610447641e+00 -4.948577473074935007e+00 -1.116643664412748871e+00 -1.782603733312891947e+01 2.618713189704612310e-01 5.009223668270774255e+00 1.354042179892430831e+01 2.216623790499051561e-01 1.566757702959816534e+00 3.343677399752659873e+00 3.381699071438588611e-01 2.621369623828763817e+00 5.301536012928647068e+00 3.933414804088460337e-01 1.536602632261512558e-01 -1.658602998106306181e+00 1.294639226552487532e+00 2.575561524638446009e+00 -1.539989750721033168e+01 6.317566336642061131e+00 -2.917319581585046340e+00 -2.172562122086450032e+01 -3.237138452116680831e+00 -6.084056566467706872e+00 8.810370820829934502e+00 1.580280440956346899e+00 2.172998040938821163e+01 1.936847825117446575e+01 -4.079323555583468597e+00 -6.523406806774016076e+00 -3.081975168593121950e+01 6.056778484424284237e+00 5.263108880373111198e+00 -1.302057220575277796e+01 0.000000000000000000e+00 0.000000000000000000e+00 0.000000000000000000e+00 -1.700645101997323660e-15 -7.646895012621356372e-16 0.000000000000000000e+00 -4.206760345294610837e-15 7.050634891676864917e-16 0.000000000000000000e+00 3.438322039652513531e-16 1.618606855363440507e-15 1.078197214039753498e-15 0.000000000000000000e+00 0.000000000000000000e+00 0.000000000000000000e+00 0.000000000000000000e+00 3.461168523406490779e-16 2.294953304262544175e-16 0.000000000000000000e+00 8.133753748900280172e-16 -3.463516725332160258e-15 3.438322039652513531e-16 1.618606855363440507e-15 1.078197214039753498e-15 0.000000000000000000e+00 -1.124380670040676250e-15 3.485619406271052267e-15 0.000000000000000000e+00 -4.313854734565048635e-16 -3.513827277081476397e-15 0.000000000000000000e+00 -6.654823553729328968e-16 -2.430276047439988237e-15 3.438322039652513531e-16 1.618606855363440507e-15 1.078197214039753498e-15 0.000000000000000000e+00 0.000000000000000000e+00 0.000000000000000000e+00 0.000000000000000000e+00 2.885453307415182834e-16 -9.201669874097593132e-16 0.000000000000000000e+00 4.042820242389834830e-16 -2.191736967215781449e-15 3.438322039652513531e-16 1.618606855363440507e-15 1.078197214039753498e-15 0.000000000000000000e+00 0.000000000000000000e+00 0.000000000000000000e+00 0.000000000000000000e+00 5.511734194044470104e-16 2.747015495110638766e-15 0.000000000000000000e+00 -7.542165926948523698e-16 -4.622268921856522081e-15 -9.267847339411359187e-01 1.853985585961084981e+00 1.182920142831346233e+01 -1.217248276077786073e+01 -1.459888757044165430e-01 2.108717127296371174e+01 -2.167082140517413791e+01 -2.207906029216906418e+01 -1.404379998258524154e+01 6.517720872786873620e+00 -2.878192390739148454e+00 2.782903783666490494e+00 0.000000000000000000e+00 0.000000000000000000e+00 0.000000000000000000e+00 3.282334283683274840e-16 -1.241911694509756661e-15 0.000000000000000000e+00 4.426002167069271631e-16 -1.358550307113407966e-15 0.000000000000000000e+00 5.039482040418657775e-16 2.041530713104614191e-16 -1.530410685875944472e-15 0.000000000000000000e+00 0.000000000000000000e+00 0.000000000000000000e+00 0.000000000000000000e+00 8.395576650672461572e-16 -3.021474418507828637e-16 0.000000000000000000e+00 -1.917929128056539147e-15 5.680699950930662400e-16 5.039482040418657775e-16 2.041530713104614191e-16 -1.530410685875944472e-15 0.000000000000000000e+00 5.990924914457524646e-16 -4.302772498840184202e-15 0.000000000000000000e+00 7.709186590077527639e-16 -6.851036137103864324e-16 0.000000000000000000e+00 -1.902293436344739400e-16 1.334404296080490126e-15 5.039482040418657775e-16 2.041530713104614191e-16 -1.530410685875944472e-15 0.000000000000000000e+00 0.000000000000000000e+00 0.000000000000000000e+00 0.000000000000000000e+00 -4.822776999885298780e-17 4.834417521122970543e-16 0.000000000000000000e+00 -6.190209846289195037e-16 2.520049461954934680e-15 5.039482040418657775e-16 2.041530713104614191e-16 -1.530410685875944472e-15 0.000000000000000000e+00 0.000000000000000000e+00 0.000000000000000000e+00 0.000000000000000000e+00 1.374987650782655640e-15 1.170738916950959482e-15 0.000000000000000000e+00 -1.458943739423296051e-15 -6.994042250689791945e-16
9.000000000000000000e+02 0.000000000000000000e+00 0.000000000000000000e+00 0.000000000000000000e+00 0.000000000000000000e+00 0.000000000000000000e+00 -2.783905848253319437e+00 5.291826549989191442e+00 2.693540917271270985e+01 -2.133295304345283938e+01 7.969392949895330425e+00 -1.622701995947348408e+01 2.175008856636941434e+00 -4.893725004744051255e+00 -5.024615944503707965e+00 -1.157020436154881038e+00 3.975826223994284092e+00 -1.478805832373581808e+01 -1.264882904298772814e+01 -1.163395666882117219e+01 -4.929148106368735682e+00 6.686437457517609317e+00 -1.995862839857040161e+00 -7.874067578365731457e+00 -4.898089844127081705e+00 -1.138327516780346160e+00 -1.778944706866287717e+01 2.577212454758407434e-01 4.974965197790514715e+00 1.356663896842078643e+01 2.195222801484629505e-01 1.558307089989849459e+00 3.351172147141992852e+00 3.342794253919724179e-01 2.608484048341359607e+00 5.311045096453343106e+00 3.905211175852493222e-01 1.455331626511554011e-01 -1.652884636114264172e+00 1.287863894539697185e+00 2.535799317045376533e+00 -1.541952593129800064e+01 6.278088099284508061e+00 -2.961319539690127289e+00 -2.161854355356267732e+01 -3.273858165493345851e+00 -6.058783633950293179e+00 8.809102027413061364e+00 1.449229978524336548e+00 2.157085930728959511e+01 1.954307920261982545e+01 -4.101419029342666001e+00 -6.182753716481929729e+00 -3.052935505136298033e+01 6.207632199295588293e+00 5.306247498440764154e+00 -1.305315284106575824e+01 0.000000000000000000e+00 0.000000000000000000e+00 0.000000000000000000e+00 -1.649307616833480187e-15 -7.794073933148873531e-16 0.000000000000000000e+00 -4.077397564698959630e-15 6.221396386627087485e-16 0.000000000000000000e+00 3.256131272763542934e-16 1.606708593094154540e-15 1.050406940269379830e-15 0.000000000000000000e+00 0.000000000000000000e+00 0.000000000000000000e+00 0.000000000000000000e+00 4.132000430754910710e-16 3.009513928562126415e-16 0.000000000000000000e+00 8.473480873018779806e-16 -3.383488863938021929e-15 3.256131272763542934e-16 1.606708593094154540e-15 1.050406940269379830e-15 0.000000000000000000e+00 -1.084913173561898614e-15 3.521665209327060593e-15 0.000000000000000000e+00 -3.975684546808220968e-16 -3.281378236728184414e-15 0.000000000000000000e+00 -6.201492722569266742e-16 -2.376024370721039283e-15 3.256131272763542934e-16 1.606708593094154540e-15 1.050406940269379830e-15 0.000000000000000000e+00 0.000000000000000000e+00 0.000000000000000000e+00 0.000000000000000000e+00 3.450430072176413721e-16 -8.449486220498048766e-16 0.000000000000000000e+00 3.816324723092655119e-16 -2.116999362538645114e-15 3.256131272763542934e-16 1.606708593094154540e-15 1.050406940269379830e-15 0.000000000000000000e+00 0.000000000000000000e+00 0.000000000000000000e+00 0.000000000000000000e+00 5.164182530036923591e-16 2.762673756158284958e-15 0.000000000000000000e+00 -7.993573767484088434e-16 -4.571013758541793193e-15 -1.010165995920214277e+00 1.798680236489768269e+00 1.174343904023148788e+01 -1.227416065512606735e+01 -2.525331455438401540e-01 2.112786812902102085e+01 -2.167172039017826890e+01 -2.181994657758207978e+01 -1.456064675127965380e+01 6.568638922850501771e+00 -2.900501814435290537e+00 2.672184112894751884e+00 0.000000000000000000e+00 0.000000000000000000e+00 0.000000000000000000e+00 2.986383054047987638e-16 -1.182139574967819202e-15 0.000000000000000000e+00 4.731405932717802173e-16 -1.298937722276942654e-15 0.000000000000000000e+00 4.751523809263175567e-16 1.552828094109405698e-16 -1.543231607268886966e-15 0.000000000000000000e+00 0.000000000000000000e+00 0.000000000000000000e+00 0.000000000000000000e+00 8.465736631366158779e-16 -3.555228756665378472e-16 0.000000000000000000e+00 -1.879875273249524902e-15 6.103205726860590773e-16 4.751523809263175567e-16 1.552828094109405698e-16 -1.543231607268886966e-15 0.000000000000000000e+00 6.623049554079879435e-16 -4.438231325259230833e-15 0.000000000000000000e+00 7.579520407830427086e-16 -7.434955864003822878e-16 0.000000000000000000e+00 -2.449136605729413447e-16 1.329778928645852099e-15 4.751523809263175567e-16 1.552828094109405698e-16 -1.543231607268886966e-15 0.000000000000000000e+00 0.000000000000000000e+00 0.000000000000000000e+00 0.000000000000000000e+00 -1.092356676394157622e-16 4.311915508936020879e-16 0.000000000000000000e+00 -6.390078675383694977e-16 2.546983280218193428e-15 4.751523809263175567e-16 1.552828094109405698e-16 -1.543231607268886966e-15 0.000000000000000000e+00 0.000000000000000000e+00 0.000000000000000000e+00 0.000000000000000000e+00 1.359856399777424700e-15 1.154508156074296454e-15 0.000000000000000000e+00 -1.417990958312740531e-15 -7.379118281653525625e-16
